<svg xmlns="http://www.w3.org/2000/svg" xmlns:xlink="http://www.w3.org/1999/xlink" version="1.1" width="313.737" height="122.924" viewBox="0 0 313.737 122.924">
<defs>
<clipPath id="clip_1">
<path transform="matrix(1,0,0,-1,0,122.924)" d="M0 122.924H313.737V0H0Z"/>
</clipPath>
</defs>
<g>
<g clip-path="url(#clip_1)">
<path transform="matrix(1,0,0,-1,85.6907,58.213808)" d="M0 0V-18.419H-9V-1.32C-9 2.4-11.34 4.141-14.219 4.141-17.52 4.141-19.799 2.221-19.799-2.039V-18.419H-28.799V11.58H-19.799V8.76C-18.18 10.98-15.18 12.42-11.22 12.42-5.16 12.42 0 8.1 0 0" fill="#03142c"/>
<path transform="matrix(1,0,0,-1,115.7513,67.633708)" d="M0 0C0-6.898-6-9.839-12.48-9.839-18.48-9.839-23.039-7.559-25.38-2.699L-17.58 1.74C-16.8-.539-15.12-1.799-12.48-1.799-10.32-1.799-9.24-1.139-9.24 .061-9.24 3.36-24 1.621-24 12-24 18.54-18.48 21.84-12.24 21.84-7.381 21.84-3.061 19.68-.541 15.42L-8.221 11.28C-9.061 12.84-10.26 13.92-12.24 13.92-13.801 13.92-14.76 13.32-14.76 12.24-14.76 8.82 0 11.1 0 0" fill="#03142c"/>
<path transform="matrix(1,0,0,-1,144.429,61.633707)" d="M0 0C0 4.5-3 7.32-7.14 7.32-11.279 7.32-14.279 4.5-14.279 0-14.279-4.5-11.279-7.319-7.14-7.319-3-7.319 0-4.5 0 0M9 0C9-8.939 2.52-15.839-5.34-15.839-9.359-15.839-12.299-14.459-14.279-12.18V-26.998H-23.279V15H-14.279V12.18C-12.299 14.46-9.359 15.84-5.34 15.84 2.52 15.84 9 8.939 9 0" fill="#03142c"/>
<path transform="matrix(1,0,0,-1,179.889,58.513605)" d="M0 0C-.96 3.479-3.66 4.739-6.36 4.739-9.78 4.739-12.06 3.06-12.899 0ZM-5.521-10.919C-3.06-10.919-.96-9.96 .239-8.64L7.439-12.779C4.5-16.859 .06-18.959-5.64-18.959-15.899-18.959-22.259-12.06-22.259-3.12-22.259 5.819-15.779 12.72-6.3 12.72 2.46 12.72 8.939 5.94 8.939-3.12 8.939-4.38 8.819-5.579 8.579-6.72H-12.72C-11.579-9.839-8.819-10.919-5.521-10.919" fill="#03142c"/>
<path transform="matrix(1,0,0,-1,192.7298,61.633707)" d="M0 0C0 8.939 6.779 15.84 15.899 15.84 21.719 15.84 26.879 12.779 29.459 8.16L21.6 3.6C20.579 5.7 18.42 6.96 15.779 6.96 11.88 6.96 9 4.141 9 0 9-4.14 11.88-6.959 15.779-6.959 18.42-6.959 20.639-5.699 21.6-3.6L29.459-8.1C26.879-12.779 21.779-15.839 15.899-15.839 6.779-15.839 0-8.939 0 0" fill="#03142c"/>
<path transform="matrix(1,0,0,-1,237.7894,55.273408)" d="M0 0V-10.62C0-13.2 2.22-13.439 6.18-13.2V-21.359C-5.579-22.56-8.999-19.02-8.999-10.62V0H-13.8V8.64H-8.999V14.339L0 17.039V8.64H6.18V0Z" fill="#03142c"/>
<path transform="matrix(1,0,0,-1,284.3999,50.984209)" d="M0 0C.425 0 .652 .227 .652 .544V.563C.652 .929 .395 1.117-.02 1.117H-.84V0ZM-1.68 1.858H.01C.524 1.858 .919 1.71 1.186 1.443 1.394 1.235 1.502 .949 1.502 .613V.593C1.502-.02 1.166-.405 .682-.583L1.611-1.947H.633L-.178-.721H-.84V-1.947H-1.68ZM2.955-.148V-.128C2.955 1.621 1.601 3.034-.198 3.034-2.006 3.034-3.37 1.601-3.37-.148V-.168C-3.37-1.917-2.016-3.33-.217-3.33 1.591-3.33 2.955-1.897 2.955-.148M-3.785-.168V-.148C-3.785 1.799-2.204 3.429-.198 3.429 1.809 3.429 3.37 1.818 3.37-.128V-.148C3.37-2.095 1.789-3.726-.217-3.726-2.224-3.726-3.785-2.115-3.785-.168" fill="#03142c"/>
<path transform="matrix(1,0,0,-1,45.1308,47.8134)" d="M0 0C-1.601 0-3.108 .397-4.438 1.09V-28.819H4.561V1.149C3.202 .417 1.649 0 0 0" fill="#03142c"/>
<path transform="matrix(1,0,0,-1,39.7305,38.1621)" d="M0 0C0 2.94 2.46 5.4 5.4 5.4 8.34 5.4 10.8 2.94 10.8 0 10.8-2.939 8.34-5.399 5.4-5.399 2.46-5.399 0-2.939 0 0" fill="#d3294a"/>
<path transform="matrix(1,0,0,-1,263.4692,45.793909)" d="M0 0C-3.746 0-7.169-1.254-9.878-3.37-8.78-3.072-7.632-2.895-6.442-2.915 4.241-3.101 7.475-11.525 6.877-16.427L6.875-16.388C6.627-20.338 3.729-22.919 0-22.919-3.899-22.919-6.899-20.1-6.899-15.84-6.899-11.58-3.899-8.76 0-8.76 1.98-8.76 3.725-9.49 4.966-10.763 2.71-7.234-2.21-3.837-12.87-6.468-14.77-9.071-15.899-12.29-15.899-15.84-15.899-24.779-8.819-31.679 0-31.679 8.819-31.679 15.899-24.779 15.899-15.84 15.899-6.9 8.819 0 0 0" fill="#03142c"/>
<g>
</g>
<g>
</g>
<g>
</g>
</g>
</g>
</svg>
